<?xml version="1.0" encoding="utf-8"?>
<?xml-stylesheet type="text/xsl" href="rss1.xsl"?>
<rss version="2.0" xmlns:atom="http://www.w3.org/2005/Atom" xmlns:content="http://purl.org/rss/1.0/modules/content/" xmlns:dc="http://purl.org/dc/elements/1.1/" xmlns:media="http://search.yahoo.com/mrss/">
<channel>
 <title>Getty</title>
 <link>http://www.gettyimg.com/</link>
 <atom:link href="http://www.gettyimg.com/" rel="self" type="application/rss+xml" />

 
                <item>
                <title><![CDATA[【Cinema Center】MOVIE - X2: X-Men United (2003) (Full Screen) (DVD9 NTSC R1)]]></title>
                <link><![CDATA[https://sharemania.us/threads/x2-x-men-united-2003-full-screen-dvd9-ntsc-r1.233506/]]></link>
                <description><![CDATA[<article>
<blockquote class="messageText SelectQuoteContainer ugc baseHtml">
<b>Title</b>: X2<br>
<b>Edition</b>: Full Screen<br>
<b>Format</b>: DVD<br>
<b>Release Date</b>: November 25, 2003<br>
<br>
<div class="bbCodeBlock bbCodeCode">
<div class="type">Code:</div>
<pre>General
Complete name                            : X2_DISC1_4X3.iso
Format                                   : ISO 9660 / DVD Video
Format profile                           : Program
File size                                : 7.92 GiB
Duration                                 : 2 h 13 min
Overall bit rate mode                    : Variable
Overall bit rate                         : 8 480 kb/s
Frame rate                               : 29.970 FPS
Movie name                               : X2_DISC1_43
Encoded date                             : 2003-07-28 13:41:11.00+09:00

Video
ID                                       : 224 (0xE0)
Format                                   : MPEG Video
Format version                           : Version 2
Format profile                           : Main@Main
Format settings                          : CustomMatrix / BVOP
Format settings, BVOP                    : Yes
Format settings, Matrix                  : Custom
Format settings, GOP                     : Variable
Duration                                 : 2 h 13 min
Bit rate mode                            : Variable
Bit rate                                 : 6 147 kb/s
Maximum bit rate                         : 9 800 kb/s
Width                                    : 720 pixels
Height                                   : 480 pixels
Display aspect ratio                     : 4:3
Frame rate                               : 29.970 (29970/1000) FPS
Original frame rate                      : 23.976 (24000/1001) FPS
Standard                                 : Component
Color space                              : YUV
Chroma subsampling                       : 4:2:0
Bit depth                                : 8 bits
Scan type                                : Progressive
Scan order                               : 2:3 Pulldown
Compression mode                         : Lossy
Bits/(Pixel*Frame)                       : 0.593
Time code of first frame                 : 00:59:59;00
Time code source                         : Group of pictures header
Stream size                              : 5.74 GiB (72%)
Color primaries                          : BT.601 NTSC
Transfer characteristics                 : BT.601
Matrix coefficients                      : BT.601
Source                                   : VIDEO_TS/VTS_04_0.IFO

Audio #1
ID                                       : 189 (0xBD)-128 (0x80)
Format                                   : AC-3
Format/Info                              : Audio Coding 3
Commercial name                          : Dolby Digital
Muxing mode                              : DVD-Video
Duration                                 : 2 h 13 min
Bit rate mode                            : Constant
Bit rate                                 : 448 kb/s
Channel(s)                               : 6 channels
Channel layout                           : L R C LFE Ls Rs
Sampling rate                            : 48.0 kHz
Frame rate                               : 31.250 FPS (1536 SPF)
Compression mode                         : Lossy
Stream size                              : 428 MiB (5%)
Language                                 : English
Service kind                             : Complete Main
Source                                   : VIDEO_TS/VTS_04_0.IFO

Audio #2
ID                                       : 189 (0xBD)-130 (0x82)
Format                                   : AC-3
Format/Info                              : Audio Coding 3
Commercial name                          : Dolby Digital
Format settings                          : Dolby Surround
Muxing mode                              : DVD-Video
Duration                                 : 2 h 13 min
Bit rate mode                            : Constant
Bit rate                                 : 192 kb/s
Channel(s)                               : 6 channels
Channel(s)_Original                      : 2 channels
ChannelLayout_Original                   : L R
Sampling rate                            : 48.0 kHz
Frame rate                               : 31.250 FPS (1536 SPF)
Compression mode                         : Lossy
Stream size                              : 184 MiB (2%)
Language                                 : English
Service kind                             : Complete Main
Source                                   : VIDEO_TS/VTS_04_0.IFO

Audio #3
ID                                       : 189 (0xBD)-131 (0x83)
Format                                   : AC-3
Format/Info                              : Audio Coding 3
Commercial name                          : Dolby Digital
Format settings                          : Dolby Surround
Muxing mode                              : DVD-Video
Duration                                 : 2 h 13 min
Bit rate mode                            : Constant
Bit rate                                 : 192 kb/s
Channel(s)                               : 2 channels
Channel layout                           : L R
Sampling rate                            : 48.0 kHz
Frame rate                               : 31.250 FPS (1536 SPF)
Compression mode                         : Lossy
Stream size                              : 184 MiB (2%)
Language                                 : French
Service kind                             : Complete Main
Source                                   : VIDEO_TS/VTS_04_0.IFO

Audio #4
ID                                       : 189 (0xBD)-132 (0x84)
Format                                   : AC-3
Format/Info                              : Audio Coding 3
Commercial name                          : Dolby Digital
Format settings                          : Dolby Surround
Muxing mode                              : DVD-Video
Duration                                 : 2 h 13 min
Bit rate mode                            : Constant
Bit rate                                 : 192 kb/s
Channel(s)                               : 2 channels
Channel layout                           : L R
Sampling rate                            : 48.0 kHz
Frame rate                               : 31.250 FPS (1536 SPF)
Compression mode                         : Lossy
Stream size                              : 184 MiB (2%)
Language                                 : Spanish
Service kind                             : Complete Main
Source                                   : VIDEO_TS/VTS_04_0.IFO

Audio #5
ID                                       : 189 (0xBD)-133 (0x85)
Format                                   : AC-3
Format/Info                              : Audio Coding 3
Commercial name                          : Dolby Digital
Format settings                          : Dolby Surround
Muxing mode                              : DVD-Video
Duration                                 : 2 h 13 min
Bit rate mode                            : Constant
Bit rate                                 : 192 kb/s
Channel(s)                               : 2 channels
Channel layout                           : L R
Sampling rate                            : 48.0 kHz
Frame rate                               : 31.250 FPS (1536 SPF)
Compression mode                         : Lossy
Stream size                              : 184 MiB (2%)
Language                                 : English
Service kind                             : Complete Main
Source                                   : VIDEO_TS/VTS_04_0.IFO

Audio #6
ID                                       : 189 (0xBD)-137 (0x89)
Format                                   : DTS
Format/Info                              : Digital Theater Systems
Muxing mode                              : DVD-Video
Duration                                 : 2 h 13 min
Bit rate mode                            : Constant
Bit rate                                 : 754 kb/s
Channel(s)                               : 2 channels
Channel(s)_Original                      : 6 channels
ChannelLayout_Original                   : C L R Ls Rs LFE
Sampling rate                            : 48.0 kHz
Frame rate                               : 93.750 FPS (512 SPF)
Bit depth                                : 16 bits
Compression mode                         : Lossy
Stream size                              : 721 MiB (9%)
Language                                 : English
Source                                   : VIDEO_TS/VTS_04_0.IFO

Text #1
ID                                       : 189 (0xBD)-32 (0x20)
Format                                   : RLE
Format/Info                              : Run-length encoding
Muxing mode                              : DVD-Video
Duration                                 : 2 h 13 min
Bit depth                                : 2 bits
Language                                 : English
Source                                   : VIDEO_TS/VTS_04_0.IFO

Text #2
ID                                       : 189 (0xBD)-33 (0x21)
Format                                   : RLE
Format/Info                              : Run-length encoding
Muxing mode                              : DVD-Video
Duration                                 : 2 h 13 min
Bit depth                                : 2 bits
Language                                 : Spanish
Language, more info                      : Normal
Source                                   : VIDEO_TS/VTS_04_0.IFO

Text #3
ID                                       : 189 (0xBD)-34 (0x22)
Format                                   : RLE
Format/Info                              : Run-length encoding
Muxing mode                              : DVD-Video
Duration                                 : 2 h 13 min
Bit depth                                : 2 bits
Language                                 : French
Language, more info                      : Normal
Source                                   : VIDEO_TS/VTS_04_0.IFO

Text #4
ID                                       : 189 (0xBD)-35 (0x23)
Format                                   : RLE
Format/Info                              : Run-length encoding
Muxing mode                              : DVD-Video
Duration                                 : 2 h 13 min
Bit depth                                : 2 bits
Language                                 : Spanish
Language, more info                      : Normal
Source                                   : VIDEO_TS/VTS_04_0.IFO

Menu
Duration                                 : 2 h 13 min
00:00:00.000                             : Chapter 1
00:01:49.367                             : Chapter 2
00:05:20.667                             : Chapter 3
00:07:10.833                             : Chapter 4
00:12:25.367                             : Chapter 5
00:15:32.333                             : Chapter 6
00:17:55.333                             : Chapter 7
00:19:23.533                             : Chapter 8
00:22:45.333                             : Chapter 9
00:26:07.167                             : Chapter 10
00:29:13.200                             : Chapter 11
00:31:07.500                             : Chapter 12
00:33:38.667                             : Chapter 13
00:35:06.500                             : Chapter 14
00:39:46.833                             : Chapter 15
00:45:32.000                             : Chapter 16
00:47:14.500                             : Chapter 17
00:50:20.167                             : Chapter 18
00:53:13.833                             : Chapter 19
00:55:36.167                             : Chapter 20
00:57:10.500                             : Chapter 21
00:59:17.333                             : Chapter 22
01:04:51.000                             : Chapter 23
01:09:18.533                             : Chapter 24
01:14:43.333                             : Chapter 25
01:18:12.833                             : Chapter 26
01:24:46.500                             : Chapter 27
01:27:10.200                             : Chapter 28
01:30:26.000                             : Chapter 29
01:32:27.367                             : Chapter 30
01:36:37.333                             : Chapter 31
01:41:09.000                             : Chapter 32
01:43:24.000                             : Chapter 33
01:46:30.667                             : Chapter 34
01:48:31.167                             : Chapter 35
01:53:34.167                             : Chapter 36
01:58:10.767                             : Chapter 37
02:02:06.267                             : Chapter 38
02:04:29.933                             : Chapter 39
02:05:02.600                             : Chapter 40
02:13:37.933                             : Chapter 41
List (Audio)                             : 0 / 1 / 2 / 3 / 4 / 5
List (Subtitles 4/3)                     : 0 / 1 / 2 / 3
List (Subtitles Wide)                    : 0 / 0 / 0 / 0
List (Subtitles Letterbox)               : 0 / 0 / 0 / 0
List (Subtitles Pan&amp;Scan)                : 0 / 0 / 0 / 0
Source                                   : VIDEO_TS/VTS_04_0.IFO

General
Complete name                            : X2_DISC2.iso
Format                                   : ISO 9660 / DVD Video
Format profile                           : Program
File size                                : 7.51 GiB
Duration                                 : 59 min 25 s
Overall bit rate mode                    : Variable
Overall bit rate                         : 18.1 Mb/s
Frame rate                               : 29.970 FPS
Movie name                               : X2_DISC2
Encoded date                             : 2003-07-29 20:10:01.00+09:00

Video #1
ID                                       : 224 (0xE0)
Format                                   : MPEG Video
Format version                           : Version 2
Format profile                           : Main@Main
Format settings                          : CustomMatrix / BVOP
Format settings, BVOP                    : Yes
Format settings, Matrix                  : Custom
Format settings, GOP                     : M=3, N=15
Format settings, picture structure       : Frame
Duration                                 : 59 min 25 s
Bit rate mode                            : Variable
Maximum bit rate                         : 9 800 kb/s
Width                                    : 720 pixels
Height                                   : 480 pixels
Display aspect ratio                     : 16:9
Frame rate                               : 29.970 (29970/1000) FPS
Original frame rate                      : 29.970 (30000/1001) FPS
Standard                                 : NTSC
Color space                              : YUV
Chroma subsampling                       : 4:2:0
Bit depth                                : 8 bits
Scan type                                : Interlaced
Scan order                               : Top Field First
Compression mode                         : Lossy
Time code of first frame                 : 00:59:58;00
Time code source                         : Group of pictures header
GOP, Open/Closed                         : Open
GOP, Open/Closed of first frame          : Closed
Color primaries                          : BT.601 NTSC
Transfer characteristics                 : BT.601
Matrix coefficients                      : BT.601
Source                                   : VIDEO_TS/VTS_06_0.IFO

Video #2
ID                                       : 224 (0xE0)
Format                                   : MPEG Video
Format version                           : Version 2
Format profile                           : Main@Main
Format settings                          : CustomMatrix / BVOP
Format settings, BVOP                    : Yes
Format settings, Matrix                  : Custom
Format settings, GOP                     : Variable
Format settings, picture structure       : Frame
Duration                                 : 42 min 57 s
Bit rate mode                            : Variable
Maximum bit rate                         : 9 800 kb/s
Width                                    : 720 pixels
Height                                   : 480 pixels
Display aspect ratio                     : 16:9
Frame rate                               : 29.970 (29970/1000) FPS
Standard                                 : Component
Color space                              : YUV
Chroma subsampling                       : 4:2:0
Bit depth                                : 8 bits
Scan type                                : Interlaced
Scan order                               : Top Field First
Compression mode                         : Lossy
Time code of first frame                 : 00:59:58;00
Time code source                         : Group of pictures header
Color primaries                          : BT.601 NTSC
Transfer characteristics                 : BT.601
Matrix coefficients                      : BT.601
Source                                   : VIDEO_TS/VTS_09_0.IFO

Audio #1
ID                                       : 189 (0xBD)-128 (0x80)
Format                                   : AC-3
Format/Info                              : Audio Coding 3
Commercial name                          : Dolby Digital
Muxing mode                              : DVD-Video
Duration                                 : 59 min 25 s
Bit rate mode                            : Constant
Bit rate                                 : 192 kb/s
Channel(s)                               : 2 channels
Channel layout                           : L R
Sampling rate                            : 48.0 kHz
Frame rate                               : 31.250 FPS (1536 SPF)
Compression mode                         : Lossy
Stream size                              : 81.6 MiB (1%)
Language                                 : English
Service kind                             : Complete Main
Source                                   : VIDEO_TS/VTS_06_0.IFO

Audio #2
ID                                       : 189 (0xBD)-128 (0x80)
Format                                   : AC-3
Format/Info                              : Audio Coding 3
Commercial name                          : Dolby Digital
Format settings                          : Dolby Surround
Muxing mode                              : DVD-Video
Duration                                 : 42 min 57 s
Bit rate mode                            : Constant
Bit rate                                 : 192 kb/s
Channel(s)                               : 2 channels
Channel layout                           : L R
Sampling rate                            : 48.0 kHz
Frame rate                               : 31.250 FPS (1536 SPF)
Compression mode                         : Lossy
Stream size                              : 59.0 MiB (1%)
Language                                 : English
Service kind                             : Complete Main
Source                                   : VIDEO_TS/VTS_09_0.IFO

Menu #1
Duration                                 : 59 min 25 s
00:00:00.000                             : Chapter 1
List (Audio)                             : 0
Source                                   : VIDEO_TS/VTS_06_0.IFO

Menu #2
Duration                                 : 18 min 0 s
00:00:00.000                             : Chapter 1
List (Audio)                             : 1
Source                                   : VIDEO_TS/VTS_09_0.IFO

Menu #3
Duration                                 : 24 min 56 s
00:00:00.000                             : Chapter 1
List (Audio)                             : 1
Source                                   : VIDEO_TS/VTS_09_0.IFO
</pre>
</div><b>Download</b><br>
<ul>
<li><a href="https://gofile.io/d/28HHTt" target="_blank" class="externalLink" rel="nofollow">https://gofile.io/d/28HHTt</a></li>
</ul>
<div class="messageTextEndMarker">&nbsp;</div>
</blockquote>
</article>]]></description>
                <author><![CDATA[Austin Zimmermann]]></author>
                </item>

                </channel></rss>